<?xml version="1.0" encoding="utf-8"?>
<!-- Generator: Adobe Illustrator 25.0.1, SVG Export Plug-In . SVG Version: 6.00 Build 0)  -->
<svg version="1.1" xmlns="http://www.w3.org/2000/svg" xmlns:xlink="http://www.w3.org/1999/xlink" x="0px" y="0px"
	 viewBox="0 0 250 250" style="enable-background:new 0 0 250 250;" xml:space="preserve">
<style type="text/css">
	.st0{display:none;}
	.st1{display:inline;}
	.st2{fill:none;stroke:#000000;stroke-width:5;stroke-linecap:round;stroke-miterlimit:10;}
	.st3{fill:none;stroke:#000000;stroke-width:5;stroke-miterlimit:10;}
</style>
<g id="Layer_1" class="st0">
	<g class="st1">
		<g>
			<path d="M12.14,155.48c-6.15-0.61-6.87-1.13-6.84-4.68c0.03-3.51,0.63-3.85,7.73-4.44c7.03-23.3,22.08-37.38,46.95-37.69
				c22.88-0.29,37.81,12.22,46.06,32.89c12.76-3.79,25.51-3.66,38.77-0.07c0.16-0.37,0.56-1.25,0.91-2.15
				c7.5-19.49,26.57-31.98,47.12-30.87c20.9,1.14,38.35,15.17,43.83,35.3c0.46,1.69,0.83,2.9,3.12,2.83
				c4.36-0.13,5.67,0.99,5.72,4.13c0.05,3.43-1.15,4.38-5.7,4.52c-0.31,0.01-0.61,0.06-1.17,0.13
				c-1.14,21.52-10.86,37.67-31.46,45.35c-20.65,7.7-38.54,1.89-53.56-13.81c-3.61,2.53-4.78,2.28-7.04-1.66
				c-3.15-5.49-5.56-11.29-6.12-17.64c-0.13-1.47,0.99-3.05,1.52-4.59c0.3-0.87,0.78-1.74,0.82-2.62c0.14-3.08-0.09-6.18,0.23-9.23
				c0.28-2.6-0.7-4.16-2.91-5.15c-0.83-0.37-1.76-0.75-2.65-0.75c-8.1-0.05-16.22-0.34-24.3,0.12c-4.61,0.26-5.55,2.15-5.27,6.83
				c0.12,1.95,0.12,3.91,0.12,5.86c0,2.15-0.82,4.4,1.75,5.99c0.66,0.41,0.68,2.29,0.56,3.45c-0.75,6.99-3.4,13.32-7.11,19.22
				c-1.53,2.43-3.05,2.37-6.1,0.1c-14.63,15.54-32.28,21.43-52.64,14.25C23.49,193.69,13.32,177.62,12.14,155.48z M102.56,156.26
				c0-23.44-18.95-42.37-42.42-42.37c-23.19,0-42.32,19.08-42.32,42.22c0,23.36,19.07,42.38,42.47,42.37
				C83.55,198.46,102.56,179.48,102.56,156.26z M232.88,156.06c-0.07-23.34-19.16-42.21-42.65-42.16
				c-23.17,0.05-42.12,19.15-42.08,42.41c0.04,23.21,19.09,42.19,42.33,42.18C213.88,198.47,232.95,179.38,232.88,156.06z"/>
		</g>
		<path class="st2" d="M242.31,151.84c0,0-60.99-98.64-94.16-105.41c-16.14-1.26-40.05,0-40.05,0"/>
		<line class="st2" x1="12.14" y1="151.48" x2="192.24" y2="156.51"/>
		<path class="st3" d="M391.87,146.61"/>
	</g>
</g>
<g id="Layer_2">
	<path d="M242.02,146.69c-11.82-18.59-62.94-96.49-93.38-102.71l-0.3-0.04c-16.12-1.26-39.39-0.06-40.37,0
		c-1.38,0.07-2.44,1.25-2.36,2.63c0.07,1.38,1.25,2.44,2.63,2.36c0.24-0.01,23.78-1.23,39.56-0.02
		c12.96,2.76,32.97,21.51,57.86,54.25c2.96,3.89,5.83,7.78,8.56,11.56c-6.37-3.62-13.64-5.82-21.39-6.24
		c-20.55-1.12-39.62,11.38-47.12,30.87c-0.35,0.9-0.75,1.79-0.91,2.15c-13.27-3.59-26.01-3.72-38.77,0.07
		c-8.25-20.67-23.18-33.18-46.06-32.89c-24.87,0.31-39.92,14.4-46.95,37.69c-7.1,0.59-7.7,0.93-7.73,4.44
		c-0.03,3.55,0.7,4.07,6.84,4.68c1.18,22.13,11.35,38.2,32.34,45.61c20.36,7.19,38.01,1.29,52.64-14.25c3.05,2.27,4.57,2.34,6.1-0.1
		c3.71-5.89,6.35-12.23,7.11-19.22c0.12-1.16,0.1-3.04-0.56-3.45c-2.57-1.58-1.75-3.83-1.75-5.99c0-0.48-0.01-0.96-0.01-1.44
		l34.84,0.97c0,0.93-0.01,1.86-0.05,2.79c-0.04,0.88-0.52,1.75-0.82,2.62c-0.53,1.53-1.65,3.11-1.52,4.59
		c0.56,6.35,2.96,12.15,6.12,17.64c2.26,3.94,3.44,4.19,7.04,1.66c15.02,15.71,32.91,21.51,53.56,13.81
		c20.6-7.68,30.32-23.83,31.46-45.35c0.56-0.06,0.86-0.12,1.17-0.13c4.54-0.14,5.75-1.09,5.7-4.52
		C245.46,148.23,244.61,147,242.02,146.69z M113.16,145.41c8.08-0.46,16.2-0.17,24.3-0.12c0.89,0.01,1.82,0.38,2.65,0.75
		c2.21,0.99,3.18,2.55,2.91,5.15c-0.05,0.48-0.07,0.96-0.1,1.44l-35.06-0.98C107.71,147.4,108.75,145.66,113.16,145.41z
		 M60.13,113.89c21.86,0,39.79,16.42,42.15,37.61l-83.87-2.34C21.78,129.27,39.31,113.89,60.13,113.89z M60.28,198.47
		c-23.4,0.02-42.47-19.01-42.47-42.37c0-0.66,0.02-1.31,0.05-1.96l84.68,2.36C102.42,179.61,83.47,198.46,60.28,198.47z
		 M190.48,198.48c-22.75,0.02-41.47-18.17-42.29-40.7l43.98,1.23c0.02,0,0.05,0,0.07,0c1.35,0,2.46-1.07,2.5-2.43
		c0.04-1.38-1.05-2.53-2.43-2.57l-44.01-1.23c1.77-21.64,19.94-38.84,41.93-38.89c23.5-0.05,42.59,18.82,42.65,42.16
		C232.95,179.38,213.88,198.47,190.48,198.48z"/>
</g>
</svg>
